# Blender v2.74 (sub 0) OBJ File: ''
# www.blender.org
mtllib pirate-ship-large.mtl
o Hull
v 1.921011 0.735453 0.000000
v 1.415108 -0.039548 0.000000
v 0.932755 0.491813 0.500000
v 0.932755 0.491813 -0.500000
v 0.430202 -0.144100 0.372222
v 0.430202 -0.144100 -0.372222
v -1.319780 0.491813 -0.500000
v -1.319780 0.491813 0.500000
v -1.316410 -0.144100 -0.372222
v -1.316410 -0.144100 0.372222
v -2.155610 0.491139 -0.500000
v -1.962282 -0.144774 -0.276683
v -1.962282 -0.144774 0.276683
v -2.155610 0.491139 0.500000
v -1.684030 0.834280 -0.500000
v -1.684030 0.834280 0.500000
v -2.219094 0.833606 -0.500000
v -2.219094 0.833606 0.500000
v -1.241378 -0.344143 -0.289703
v 0.303709 -0.344143 -0.289703
v 0.303709 -0.344143 0.289703
v -1.241378 -0.344143 0.289703
v -1.744064 -0.344667 0.215344
v -1.744064 -0.344667 -0.215344
v 1.029227 -0.344143 0.000000
vn -0.665700 -0.237200 -0.707400
vn -0.652300 -0.528800 -0.542900
vn -0.652300 -0.528800 0.542900
vn -0.665700 -0.237200 0.707400
vn 0.222800 0.449300 -0.865100
vn 0.222800 0.449300 0.865100
vn 0.215200 0.495700 0.841400
vn 0.215200 0.495700 -0.841400
vn -0.032900 -0.824300 0.565200
vn -0.032900 -0.824300 -0.565200
vn 0.081800 -0.814400 -0.574500
vn 0.081800 -0.814400 0.574500
vn -0.055100 -0.321000 0.945500
vn 0.180500 -0.357000 0.916500
vn 0.180500 -0.357000 -0.916500
vn -0.055100 -0.321000 -0.945500
vn -0.316300 -0.841200 0.438500
vn -0.316300 -0.841200 -0.438500
vn 0.284800 0.720100 0.632700
vn 0.284800 0.720100 -0.632700
vn -0.632900 0.525700 -0.568400
vn -0.632900 0.525700 0.568400
vn 0.712000 -0.702200 0.000000
vn 0.909700 0.415300 0.000000
vn 0.472200 -0.881500 0.000000
usemtl 6b551d
s 1
f 11//1 12//2 13//3
f 11//1 13//3 14//4
f 7//5 8//6 3//7
f 7//5 3//7 4//8
f 22//9 19//10 20//11
f 22//9 20//11 21//12
f 8//6 10//13 5//14
f 8//6 5//14 3//7
f 4//8 6//15 9//16
f 4//8 9//16 7//5
f 7//5 9//16 12//2 11//1
f 19//10 22//9 23//17 24//18
f 10//13 8//6 14//4 13//3
f 16//19 15//20 17//21 18//22
f 8//6 7//5 15//20 16//19
f 7//5 11//1 17//21 15//20
f 11//1 14//4 18//22 17//21
f 14//4 8//6 16//19 18//22
f 3//7 5//14 2//23 1//24
f 21//12 20//11 25//25
f 6//15 4//8 1//24 2//23
f 4//8 3//7 1//24
f 9//16 6//15 20//11 19//10
f 5//14 10//13 22//9 21//12
f 10//13 13//3 23//17 22//9
f 13//3 12//2 24//18 23//17
f 12//2 9//16 19//10 24//18
f 6//15 2//23 25//25 20//11
f 2//23 5//14 21//12 25//25
o Sail1
v 0.324079 2.061735 0.000000
v 0.742874 1.140769 0.000000
v 0.324079 0.616048 0.000000
v 0.622340 1.140769 -0.559764
v 0.622340 1.140769 0.559764
v 0.203544 0.616048 -0.500000
v 0.203544 0.616048 0.500000
v 0.203544 2.061735 0.500000
v 0.203544 2.061735 -0.500000
vt 0.000000 1.000000
vt 0.000000 0.000000
vt 1.000000 0.000000
vt 1.000000 1.000000
vn -0.781600 0.623800 0.000000
vn 0.000000 1.000000 0.000000
vn 0.000000 -1.000000 0.000000
vn 0.764800 -0.620300 0.174000
vn 0.764800 -0.620300 -0.174000
vn -0.910300 -0.413900 0.000000
vn 0.889000 0.410800 0.202200
vn 0.889000 0.410800 -0.202200
usemtl b0b0b0
s 1
f 29/1/26 31/2/26 32/3/26 30/4/26
f 34/1/27 33/2/27 26/3/27
f 32/1/28 31/2/28 28/3/28
f 30/1/29 32/2/29 28/3/29 27/4/29
f 27/1/30 28/2/30 31/3/30 29/4/30
f 29/2/31 30/2/31 33/2/31 34/2/31
f 30/2/32 27/2/32 26/2/32 33/2/32
f 27/2/33 29/2/33 34/2/33 26/2/33
o Mast0
v -0.979454 2.562455 0.000000
v -0.979454 0.464683 0.000000
v -1.077273 2.562455 -0.030701
v -1.077273 2.562455 0.030701
v -1.077273 0.464683 -0.030701
v -1.077273 0.464683 0.030701
vt 0.000000 1.000000
vt 0.000000 0.000000
vt 1.000000 0.000000
vt 1.000000 1.000000
vn -1.000000 0.000000 0.000000
vn 0.000000 1.000000 0.000000
vn 0.000000 -1.000000 0.000000
vn 0.299500 0.000000 0.954100
vn 0.299500 0.000000 -0.954100
usemtl 514630
s 1
f 37/5/34 39/6/34 40/7/34 38/8/34
f 37/5/35 38/6/35 35/7/35
f 40/5/36 39/6/36 36/7/36
f 38/5/37 40/6/37 36/7/37 35/8/37
f 35/5/38 36/6/38 39/7/38 37/8/38
o Mast1
v 0.179946 2.269299 0.000000
v 0.179946 0.464683 0.000000
v 0.082127 2.269299 -0.030701
v 0.082127 2.269299 0.030701
v 0.082127 0.464683 -0.030701
v 0.082127 0.464683 0.030701
vt 0.000000 1.000000
vt 0.000000 0.000000
vt 1.000000 0.000000
vt 1.000000 1.000000
vn -1.000000 0.000000 0.000000
vn 0.000000 1.000000 0.000000
vn 0.000000 -1.000000 0.000000
vn 0.299500 0.000000 0.954100
vn 0.299500 0.000000 -0.954100
usemtl 514630
s 1
f 43/9/39 45/10/39 46/11/39 44/12/39
f 43/9/40 44/10/40 41/11/40
f 46/9/41 45/10/41 42/11/41
f 44/9/42 46/10/42 42/11/42 41/12/42
f 41/9/43 42/10/43 45/11/43 43/12/43
o Sail0
v -0.835321 2.313011 0.000000
v -0.416526 1.238487 0.000000
v -0.835321 0.616048 0.000000
v -0.537060 1.238487 -0.607576
v -0.537060 1.238487 0.607576
v -0.955855 0.616048 -0.500000
v -0.955855 0.616048 0.500000
v -0.955855 2.313011 0.500000
v -0.955855 2.313011 -0.500000
vt 0.000000 1.000000
vt 0.000000 0.000000
vt 1.000000 0.000000
vt 1.000000 1.000000
vn -0.829700 0.558200 0.000000
vn 0.000000 1.000000 0.000000
vn 0.000000 -1.000000 0.000000
vn 0.809600 -0.559900 0.176200
vn 0.809600 -0.559900 -0.176200
vn -0.931700 -0.363100 0.000000
vn 0.909900 0.364500 0.198000
vn 0.909900 0.364500 -0.198000
usemtl b0b0b0
s 1
f 50/13/44 52/14/44 53/15/44 51/16/44
f 55/13/45 54/14/45 47/15/45
f 53/13/46 52/14/46 49/15/46
f 51/13/47 53/14/47 49/15/47 48/16/47
f 48/13/48 49/14/48 52/15/48 50/16/48
f 50/14/49 51/14/49 54/14/49 55/14/49
f 51/14/50 48/14/50 47/14/50 54/14/50
f 48/14/51 50/14/51 55/14/51 47/14/51
